<svg width="28" height="34" viewBox="0 0 28 34" fill="none" xmlns="http://www.w3.org/2000/svg">
<path d="M9.30206 33.9996C4.24184 33.9704 0.0561218 23.6408 0.0561218 18.3802C0.0561218 9.78692 6.50251 7.90563 8.9869 7.90563C10.1065 7.90563 11.302 8.34531 12.3565 8.73438C13.0939 9.00578 13.8565 9.28595 14.2806 9.28595C14.5345 9.28595 15.1327 9.04762 15.6609 8.83851C16.7874 8.39007 18.1891 7.83272 19.8213 7.83272C19.8243 7.83272 19.8282 7.83272 19.831 7.83272C21.0499 7.83272 24.7454 8.1002 26.9671 11.4367L27.4875 12.2188L26.7386 12.784C25.6686 13.5913 23.7162 15.0641 23.7162 17.9814C23.7162 21.4366 25.9273 22.7654 26.9895 23.4045C27.4584 23.6866 27.9438 23.9774 27.9438 24.6136C27.9438 25.029 24.6286 33.948 19.8145 33.948C18.6365 33.948 17.8039 33.594 17.0694 33.2817C16.3263 32.9656 15.6852 32.6932 14.6259 32.6932C14.0889 32.6932 13.4099 32.9471 12.691 33.2166C11.7087 33.5832 10.5968 33.9996 9.33514 33.9996H9.30206Z" fill="black"/>
<path d="M20.3316 0C20.457 4.52067 17.224 7.65691 13.9948 7.46021C13.4627 3.85256 17.2236 0 20.3316 0Z" fill="black"/>
</svg>