<svg width="34" height="34" viewBox="0 0 34 34" fill="none" xmlns="http://www.w3.org/2000/svg">
<g clip-path="url(#clip0_19_504)">
<path d="M7.53512 20.5465L6.35162 24.9646L2.02599 25.0561C0.733258 22.6584 0 19.9151 0 16.9998C0 14.1808 0.685578 11.5225 1.90081 9.18172H1.90174L5.75277 9.88775L7.43976 13.7157C7.08668 14.745 6.89423 15.85 6.89423 16.9998C6.89436 18.2478 7.12041 19.4434 7.53512 20.5465Z" fill="#FDD161"/>
<path d="M33.7032 13.8242C33.8985 14.8526 34.0003 15.9146 34.0003 17C34.0003 18.2171 33.8723 19.4043 33.6285 20.5495C32.801 24.4464 30.6386 27.8492 27.6431 30.2572L27.6421 30.2563L22.7916 30.0088L22.1051 25.7233C24.0927 24.5576 25.6461 22.7333 26.4644 20.5495H17.374V13.8242H26.597H33.7032Z" fill="#518EF8"/>
<path d="M27.6418 30.2564L27.6427 30.2573C24.7294 32.599 21.0286 34.0001 17 34.0001C10.5259 34.0001 4.89728 30.3815 2.02594 25.0564L7.53507 20.5468C8.97071 24.3783 12.6668 27.1058 17 27.1058C18.8624 27.1058 20.6073 26.6023 22.1046 25.7233L27.6418 30.2564Z" fill="#28B446"/>
<path d="M27.8512 3.91372L22.3439 8.42244C20.7943 7.45384 18.9626 6.8943 17.0001 6.8943C12.5689 6.8943 8.80367 9.74691 7.43995 13.7158L1.90187 9.18186H1.90094C4.73024 3.72692 10.4299 0 17.0001 0C21.125 0 24.907 1.4693 27.8512 3.91372Z" fill="#FF5656"/>
</g>
<defs>
<clipPath id="clip0_19_504">
<rect width="34" height="34" fill="white"/>
</clipPath>
</defs>
</svg>